<?xml version="1.0" encoding="UTF-8"?>
<svg id="Layer_2" data-name="Layer 2" xmlns="http://www.w3.org/2000/svg" viewBox="0 0 2550.28 2555.68">
  <defs>
    <style>
      .cls-1 {
        fill: #75c2f6;
      }

      .cls-2 {
        fill: #ff5b00;
      }

      .cls-3 {
        fill: #494949;
        font-family: COCOGOOSE-DemiBold, COCOGOOSE;
        font-size: 255.95px;
        font-weight: 300;
      }

      .cls-4 {
        fill: #1d5d9b;
      }
    </style>
  </defs>
  <path class="cls-1" d="m870.59,1427.03l-45.27,38.6c-10.59-12.87-26.67-21.08-44.66-21.08s-34.03,8.21-44.66,21.07l-45.27-38.58c21.52-25.67,53.82-41.98,89.93-41.98s68.41,16.31,89.93,41.98Z"/>
  <path class="cls-1" d="m991.17,1324.23l-64.63,55.1c-35.03-41.51-87.43-67.9-145.88-67.9s-110.84,26.39-145.88,67.9l-64.63-55.1c19.48-22.97,42.62-42.72,68.54-58.33,41.51-25.01,90.1-39.41,141.97-39.41,10.16,0,20.18.55,30.05,1.62,7.14.77,14.18,1.83,21.12,3.13,57.89,10.89,109.46,39.94,148.54,80.98,3.72,3.89,7.32,7.89,10.8,12.01Z"/>
  <path class="cls-4" d="m1089.72,1180.56c0,35.56-14.53,67.94-38.34,92.13-49-57.65-116.05-99.53-192.35-116.77-17.33-3.93-35.11-6.57-53.29-7.83-8.29-.59-16.65-.89-25.09-.89-53.48,0-104.22,11.87-149.76,33.13-15.25,7.14-29.94,15.31-43.92,24.46-28.9,18.86-54.87,41.81-77.11,68.01-.09-.06-.19-.15-.28-.25-16.37-14.25-26.71-35.24-26.71-58.65,0-42.98,34.85-77.83,77.83-77.83,4.95,0,9.78.45,14.48,1.36,5-73.99,66.63-132.47,141.91-132.47,18.59,0,36.37,3.57,52.66,10.08,32.58,12.99,59.23,37.71,74.75,68.94,24.94-23.16,58.78-37.81,96.27-38.98,1.62-.06,3.25-.08,4.89-.08,79.56,0,144.06,60.72,144.06,135.63Z"/>
  <path class="cls-2" d="m774.66,1002.79c30.44,12.13,56.08,33.47,73.55,60.93,26.24-19.64,58.39-30.86,92.15-31.91.25,0,.51,0,.76-.01-2.22-46.06-40.28-82.75-86.91-82.75-36.17,0-67.16,22.07-80.29,53.46.25.1.49.18.74.28Z"/>
  <text class="cls-3" transform="translate(1089.72 1236.31)"><tspan x="0" y="0">TECH</tspan><tspan x="0" y="223.88">CLOUDS</tspan></text>
</svg>