<?xml version="1.0" encoding="UTF-8"?>
<svg id="Layer_2" data-name="Layer 2" xmlns="http://www.w3.org/2000/svg" viewBox="0 0 2550.28 2555.68">
  <defs>
    <style>
      .cls-1 {
        fill: #75c2f6;
      }

      .cls-2 {
        fill: #ff5b00;
      }

      .cls-3 {
        fill: #1d5d9b;
      }
    </style>
  </defs>
  <path class="cls-1" d="m1547.97,1891.63l-146.51,124.94c-34.28-41.67-86.33-68.24-144.56-68.24s-110.16,26.58-144.56,68.18l-146.51-124.88c69.65-83.09,174.19-135.88,291.07-135.88s221.42,52.79,291.07,135.88Z"/>
  <path class="cls-1" d="m1938.26,1558.9l-209.2,178.34c-113.4-134.35-283-219.77-472.16-219.77s-358.76,85.41-472.16,219.77l-209.2-178.34c63.05-74.36,137.96-138.26,221.84-188.79,134.35-80.95,291.62-127.57,459.51-127.57,32.87,0,65.31,1.77,97.27,5.25,23.09,2.51,45.88,5.93,68.37,10.14,187.38,35.25,354.3,129.28,480.77,262.11,12.04,12.59,23.71,25.54,34.95,38.86Z"/>
  <path class="cls-3" d="m2257.24,1093.89c0,115.11-47.04,219.89-124.09,298.21-158.61-186.59-375.62-322.16-622.58-377.95-56.09-12.71-113.64-21.26-172.48-25.36-26.82-1.89-53.89-2.87-81.2-2.87-173.09,0-337.32,38.43-484.74,107.23-49.37,23.09-96.9,49.55-142.17,79.18-93.54,61.04-177.61,135.33-249.58,220.13-.31-.18-.61-.49-.92-.8-52.97-46.13-86.45-114.07-86.45-189.83,0-139.12,112.78-251.9,251.9-251.9,16.01,0,31.65,1.47,46.86,4.4,16.19-239.5,215.67-428.78,459.33-428.78,60.18,0,117.73,11.55,170.46,32.63,105.45,42.03,191.72,122.07,241.94,223.13,80.71-74.97,190.26-122.38,311.59-126.16,5.25-.18,10.51-.24,15.82-.24,257.52,0,466.29,196.55,466.29,438.98Z"/>
  <path class="cls-2" d="m1237.46,518.48c98.52,39.27,181.5,108.35,238.06,197.21,84.92-63.56,188.99-99.87,298.27-103.29.8-.03,1.65-.02,2.45-.04-7.18-149.1-130.37-267.83-281.31-267.83-117.09,0-217.39,71.44-259.86,173.05.79.31,1.6.57,2.39.89Z"/>
</svg>