<svg id="Layer_1" data-name="Layer 1" xmlns="http://www.w3.org/2000/svg" viewBox="0 0 562.07 551.5"><defs><style>.cls-1{fill:#5800ff;}.cls-2{fill:#ffb200;}.cls-3{fill:#181818;}.cls-4,.cls-8{font-size:63px;}.cls-4{font-family:Queensides-Medium, Queensides;font-weight:500;}.cls-5{letter-spacing:-0.17em;}.cls-6{letter-spacing:0.03em;}.cls-7{letter-spacing:0.09em;}.cls-8{font-family:Queensides-Light, Queensides;font-weight:300;}.cls-9{letter-spacing:-0.02em;}.cls-10{letter-spacing:-0.02em;}</style></defs><path class="cls-1" d="M515.08,97.22a48.27,48.27,0,0,0-6.74.49,30.93,30.93,0,0,0-38.07-29,49.42,49.42,0,0,0,.33-6,53,53,0,0,0-94.41-32.95,53,53,0,0,0-99.5,12,53.11,53.11,0,0,0-68.9,21.84A42.6,42.6,0,0,0,130.23,65,53.06,53.06,0,0,0,40.14,93.31,30.89,30.89,0,0,0,22,116.8a40.31,40.31,0,0,0-22,7.58l24.77,35.41,5,7.14,16.75,24,12,17.07,10.06,14.41a494.89,494.89,0,0,1,74-28.57h0q12.23-3.67,24.71-6.66a504,504,0,0,1,177.17-10.46A498.88,498.88,0,0,1,497,220.27l11.88-17.36.26-.35v0l21.86-32,4.26-6.2L543.06,153,552,139.89l7.63-11.16,2.44-3.56A53,53,0,0,0,515.08,97.22Z"/><path class="cls-2" d="M428.79,249.37a30.88,30.88,0,0,0-16.31,4.75,14.21,14.21,0,0,0-3.67-1.12,30.21,30.21,0,0,0,.29-4.17,30.93,30.93,0,0,0-58.87-13.13A30.86,30.86,0,0,0,322.62,219a26.1,26.1,0,0,0-2.82.14,36.9,36.9,0,0,0-72.65-.43h-.21a30.67,30.67,0,0,0-19,6.65,30.93,30.93,0,0,0-51.28-8.74,48.39,48.39,0,0,0-8.21-.67,47.41,47.41,0,0,0-40,22.21A30.94,30.94,0,0,0,102.2,267.6l6.25,8.94h0l8.89,12.73,6.21,8.89h0l24,34.31q7.59-3.14,15.36-5.91a369.84,369.84,0,0,1,120-21.8l3.72,0H287a371.59,371.59,0,0,1,48.95,3q10.8,1.38,21.37,3.38a368.4,368.4,0,0,1,59.57,16.47c1.11.41,2.22.82,3.31,1.25,1.94.72,3.86,1.48,5.77,2.24h0l15.35-22.44h0l6.25-9.16,12.27-17.92c0-.47,0-.94,0-1.42a30.95,30.95,0,0,0-31.08-30.78Z"/><path class="cls-3" d="M364.43,369.78,363,370a37.24,37.24,0,0,0-35.69-25.92c0-.68-.09-1.35-.16-2a30.95,30.95,0,0,0-34.45-26.94c-.3,0-.6.07-.88.13a30.9,30.9,0,0,0-26.08,34.31c0,.18,0,.37.08.56a30.43,30.43,0,0,0-9.88-.4,30.75,30.75,0,0,0-12.88,4.63,30.92,30.92,0,0,0-51.63,19.05,30.72,30.72,0,0,0-13.23,2.92l6.49,9.3h0l7.81,11.17,20.6,29.47,5.46,7.84h0l6.07,8.7c2.64-.72,5.31-1.39,8-2h0c.58-.15,1.18-.28,1.78-.42a241.7,241.7,0,0,1,47.63-6c1.73-.05,3.45-.08,5.18-.08,1.43,0,2.85,0,4.28,0a241,241,0,0,1,51.61,6.19c2.28.53,4.53,1.08,6.79,1.67l8.45-12.34,31-45.26,2.63-3.84A30.86,30.86,0,0,0,364.43,369.78Z"/><text class="cls-4" transform="translate(242.07 535.08)">C<tspan class="cls-5" x="48.33" y="0">L</tspan><tspan class="cls-6" x="71.43" y="0">O</tspan><tspan class="cls-7" x="128.15" y="0">U</tspan><tspan x="179.8" y="0">D</tspan></text><text class="cls-8" transform="translate(102.67 535.08)"><tspan class="cls-9">T</tspan><tspan class="cls-10" x="30.48" y="0">E</tspan><tspan x="60.63" y="0">CH</tspan></text></svg>